<svg xmlns="http://www.w3.org/2000/svg" width="320" height="150" viewBox="0 0 320 150"><defs><linearGradient id="bgH" x1="0%" x2="100%" y1="0%" y2="0%"><stop offset="0%" style="stop-color:#1a5fd4"/><stop offset="100%" style="stop-color:#3a8ef6"/></linearGradient><linearGradient id="pg" x1="10%" x2="90%" y1="0%" y2="100%"><stop offset="0%" style="stop-color:#fff"/><stop offset="100%" style="stop-color:#e8eef8"/></linearGradient><linearGradient id="fd" x1="0%" x2="100%" y1="0%" y2="100%"><stop offset="0%" style="stop-color:#c5d5ee"/><stop offset="100%" style="stop-color:#a0b8de"/></linearGradient><linearGradient id="ln" x1="0%" x2="100%" y1="0%" y2="0%"><stop offset="0%" style="stop-color:#6aabee"/><stop offset="100%" style="stop-color:#9cc8f8"/></linearGradient></defs><rect width="320" height="150" x="0" y="0" fill="url(#bgH)" rx="14"/><rect width="64" height="64" x="18" y="43" fill="#fff" fill-opacity=".15" rx="14"/><rect width="32" height="40" x="34" y="55" fill="url(#pg)" rx="2.5"/><polygon fill="url(#fd)" points="55 55 66 55 66 66"/><polygon fill="#fff" fill-opacity=".55" points="55 55 66 66 55 66"/><line x1="55" x2="55" y1="55" y2="66" stroke="#b0c4de" stroke-width=".7"/><line x1="55" x2="66" y1="66" y2="66" stroke="#b0c4de" stroke-width=".7"/><rect width="19" height="2.5" x="38" y="72" fill="url(#ln)" rx="1.25"/><rect width="23" height="2.5" x="38" y="79" fill="url(#ln)" rx="1.25"/><rect width="14" height="2.5" x="38" y="86" fill="url(#ln)" rx="1.25"/><path fill="none" stroke="url(#ln)" stroke-linecap="round" stroke-linejoin="round" stroke-width="2.5" d="M34,64 L34,55 L43,55"/><path fill="none" stroke="url(#ln)" stroke-linecap="round" stroke-linejoin="round" stroke-width="2.5" d="M66,86 L66,95 L57,95"/><text x="98" y="60" fill="#fff" font-family="Google Sans, Roboto, sans-serif" font-size="20" font-weight="700">Size Matters</text><text x="98" y="78" fill="#fff" fill-opacity=".88" font-family="Roboto, sans-serif" font-size="13">Custom page sizes for Google Docs™</text><line x1="98" x2="300" y1="87" y2="87" stroke="#fff" stroke-opacity=".2" stroke-width=".8"/><text x="98" y="103" fill="#fff" fill-opacity=".72" font-family="Roboto, sans-serif" font-size="12">Free · No subscription · Open to all</text></svg>