<svg xmlns="http://www.w3.org/2000/svg" width="440" height="280" viewBox="0 0 440 280"><defs><linearGradient id="bgH" x1="0%" x2="100%" y1="0%" y2="0%"><stop offset="0%" style="stop-color:#1a5fd4"/><stop offset="100%" style="stop-color:#3a8ef6"/></linearGradient><linearGradient id="pg" x1="10%" x2="90%" y1="0%" y2="100%"><stop offset="0%" style="stop-color:#fff"/><stop offset="100%" style="stop-color:#e8eef8"/></linearGradient><linearGradient id="fd" x1="0%" x2="100%" y1="0%" y2="100%"><stop offset="0%" style="stop-color:#c5d5ee"/><stop offset="100%" style="stop-color:#a0b8de"/></linearGradient><linearGradient id="ln" x1="0%" x2="100%" y1="0%" y2="0%"><stop offset="0%" style="stop-color:#6aabee"/><stop offset="100%" style="stop-color:#9cc8f8"/></linearGradient></defs><rect width="440" height="280" x="0" y="0" fill="url(#bgH)" rx="18"/><rect width="110" height="110" x="35" y="85" fill="#fff" fill-opacity=".15" rx="24"/><rect width="56" height="70" x="62" y="105" fill="url(#pg)" rx="4"/><polygon fill="url(#fd)" points="99 105 118 105 118 124"/><polygon fill="#fff" fill-opacity=".55" points="99 105 118 124 99 124"/><line x1="99" x2="99" y1="105" y2="124" stroke="#b0c4de" stroke-width=".8"/><line x1="99" x2="118" y1="124" y2="124" stroke="#b0c4de" stroke-width=".8"/><rect width="34" height="5" x="70" y="136" fill="url(#ln)" rx="2.5"/><rect width="40" height="5" x="70" y="149" fill="url(#ln)" rx="2.5"/><rect width="28" height="5" x="70" y="162" fill="url(#ln)" rx="2.5"/><path fill="none" stroke="url(#ln)" stroke-linecap="round" stroke-linejoin="round" stroke-width="4.5" d="M62,123 62,105 80,105"/><path fill="none" stroke="url(#ln)" stroke-linecap="round" stroke-linejoin="round" stroke-width="4.5" d="M118,157 118,175 100,175"/><text x="190" y="90" fill="#fff" font-family="Google Sans, Roboto, sans-serif" font-size="26" font-weight="700">Size Matters</text><text x="190" y="111" fill="#fff" fill-opacity=".88" font-family="Roboto, sans-serif" font-size="13.5">Custom page sizes for Google Docs™</text><line x1="190" x2="405" y1="122" y2="122" stroke="#fff" stroke-opacity=".2" stroke-width=".8"/><text x="190" y="140" fill="#fff" fill-opacity=".78" font-family="Roboto, sans-serif" font-size="12.5">Any dimensions · Inches, cm, or points</text><text x="190" y="158" fill="#fff" fill-opacity=".78" font-family="Roboto, sans-serif" font-size="12.5">Custom presets · Portrait &amp; landscape</text><text x="190" y="176" fill="#fff" fill-opacity=".78" font-family="Roboto, sans-serif" font-size="12.5">Page color picker · Free forever</text><rect width="56" height="22" x="190" y="188" fill="#fff" fill-opacity=".18" rx="11"/><text x="218" y="203" fill="#fff" font-family="Roboto, sans-serif" font-size="11" font-weight="700" text-anchor="middle">FREE</text></svg>