<svg xmlns="http://www.w3.org/2000/svg" width="220" height="140" viewBox="0 0 220 140"><defs><linearGradient id="bgH" x1="0%" x2="100%" y1="0%" y2="100%"><stop offset="0%" style="stop-color:#1a5fd4"/><stop offset="100%" style="stop-color:#3a8ef6"/></linearGradient><linearGradient id="pg" x1="10%" x2="90%" y1="0%" y2="100%"><stop offset="0%" style="stop-color:#fff"/><stop offset="100%" style="stop-color:#e8eef8"/></linearGradient><linearGradient id="fd" x1="0%" x2="100%" y1="0%" y2="100%"><stop offset="0%" style="stop-color:#c5d5ee"/><stop offset="100%" style="stop-color:#a0b8de"/></linearGradient><linearGradient id="ln" x1="0%" x2="100%" y1="0%" y2="0%"><stop offset="0%" style="stop-color:#6aabee"/><stop offset="100%" style="stop-color:#9cc8f8"/></linearGradient></defs><rect width="220" height="140" x="0" y="0" fill="url(#bgH)" rx="16"/><rect width="72" height="72" x="12" y="34" fill="#fff" fill-opacity=".15" rx="16"/><rect width="36" height="44" x="30" y="48" fill="url(#pg)" rx="3"/><polygon fill="url(#fd)" points="54 48 66 48 66 60"/><polygon fill="#fff" fill-opacity=".55" points="54 48 66 60 54 60"/><line x1="54" x2="54" y1="48" y2="60" stroke="#b0c4de" stroke-width=".7"/><line x1="54" x2="66" y1="60" y2="60" stroke="#b0c4de" stroke-width=".7"/><rect width="22" height="3" x="34" y="67" fill="url(#ln)" rx="1.5"/><rect width="26" height="3" x="34" y="74" fill="url(#ln)" rx="1.5"/><rect width="17" height="3" x="34" y="81" fill="url(#ln)" rx="1.5"/><path fill="none" stroke="url(#ln)" stroke-linecap="round" stroke-linejoin="round" stroke-width="3" d="M30,58 L30,48 L40,48"/><path fill="none" stroke="url(#ln)" stroke-linecap="round" stroke-linejoin="round" stroke-width="3" d="M66,82 L66,92 L56,92"/><text x="103" y="48" fill="#fff" font-family="Google Sans, Roboto, sans-serif" font-size="19" font-weight="700">Size Matters</text><text x="103" y="65" fill="#fff" fill-opacity=".88" font-family="Roboto, sans-serif" font-size="11.5">Custom page sizes</text><text x="103" y="79" fill="#fff" fill-opacity=".88" font-family="Roboto, sans-serif" font-size="11.5">for Google Docs</text><line x1="103" x2="208" y1="89" y2="89" stroke="#fff" stroke-opacity=".4" stroke-width=".8"/><text x="103" y="105" fill="#fff" fill-opacity=".72" font-family="Roboto, sans-serif" font-size="10.5">Free · No subscription</text></svg>