<svg xmlns="http://www.w3.org/2000/svg" width="96" height="96" viewBox="0 0 96 96"><defs><linearGradient id="bg" x1="0%" x2="100%" y1="0%" y2="100%"><stop offset="0%" style="stop-color:#3a8ef6"/><stop offset="100%" style="stop-color:#1a5fd4"/></linearGradient><linearGradient id="pg" x1="10%" x2="90%" y1="0%" y2="100%"><stop offset="0%" style="stop-color:#fff"/><stop offset="100%" style="stop-color:#e8eef8"/></linearGradient><linearGradient id="fd" x1="0%" x2="100%" y1="0%" y2="100%"><stop offset="0%" style="stop-color:#c5d5ee"/><stop offset="100%" style="stop-color:#a0b8de"/></linearGradient><linearGradient id="ln" x1="0%" x2="100%" y1="0%" y2="0%"><stop offset="0%" style="stop-color:#6aabee"/><stop offset="100%" style="stop-color:#9cc8f8"/></linearGradient></defs><rect width="96" height="96" x="0" y="0" fill="url(#bg)" rx="21"/><rect width="54" height="67" x="21" y="15" fill="url(#pg)" rx="4"/><polygon fill="url(#fd)" points="57 15 75 15 75 33"/><polygon fill="#fff" fill-opacity=".5" points="57 15 75 33 57 33"/><line x1="57" x2="57" y1="15" y2="33" stroke="#b0c4de" stroke-width=".7"/><line x1="57" x2="75" y1="33" y2="33" stroke="#b0c4de" stroke-width=".7"/><rect width="36" height="4" x="29" y="48" fill="url(#ln)" rx="2"/><rect width="42" height="4" x="29" y="59" fill="url(#ln)" rx="2"/><rect width="29" height="4" x="29" y="70" fill="url(#ln)" rx="2"/><path fill="none" stroke="url(#ln)" stroke-linecap="round" stroke-linejoin="round" stroke-width="3.5" d="M21,30 L21,15 L36,15"/><path fill="none" stroke="url(#ln)" stroke-linecap="round" stroke-linejoin="round" stroke-width="3.5" d="M75,67 L75,82 L60,82"/></svg>