<svg xmlns="http://www.w3.org/2000/svg" width="48" height="48" viewBox="0 0 48 48"><defs><linearGradient id="bg" x1="0%" x2="100%" y1="0%" y2="100%"><stop offset="0%" style="stop-color:#3a8ef6"/><stop offset="100%" style="stop-color:#1a5fd4"/></linearGradient><linearGradient id="pg" x1="10%" x2="90%" y1="0%" y2="100%"><stop offset="0%" style="stop-color:#fff"/><stop offset="100%" style="stop-color:#e8eef8"/></linearGradient><linearGradient id="fd" x1="0%" x2="100%" y1="0%" y2="100%"><stop offset="0%" style="stop-color:#c5d5ee"/><stop offset="100%" style="stop-color:#a0b8de"/></linearGradient><linearGradient id="ln" x1="0%" x2="100%" y1="0%" y2="0%"><stop offset="0%" style="stop-color:#6aabee"/><stop offset="100%" style="stop-color:#9cc8f8"/></linearGradient></defs><rect width="48" height="48" x="0" y="0" fill="url(#bg)" rx="10"/><rect width="27" height="34" x="11" y="7" fill="url(#pg)" rx="2"/><polygon fill="url(#fd)" points="29 7 38 7 38 16"/><polygon fill="#fff" fill-opacity=".5" points="29 7 38 16 29 16"/><line x1="29" x2="29" y1="7" y2="16" stroke="#b0c4de" stroke-width=".5"/><line x1="29" x2="38" y1="16" y2="16" stroke="#b0c4de" stroke-width=".5"/><rect width="18" height="2" x="14" y="24" fill="url(#ln)" rx="1"/><rect width="21" height="2" x="14" y="30" fill="url(#ln)" rx="1"/><rect width="14" height="2" x="14" y="36" fill="url(#ln)" rx="1"/><path fill="none" stroke="url(#ln)" stroke-linecap="round" stroke-linejoin="round" stroke-width="2" d="M11,15 L11,7 L19,7"/><path fill="none" stroke="url(#ln)" stroke-linecap="round" stroke-linejoin="round" stroke-width="2" d="M38,33 L38,41 L30,41"/></svg>