<svg xmlns="http://www.w3.org/2000/svg" width="32" height="32" viewBox="0 0 32 32"><defs><linearGradient id="bg" x1="0%" x2="100%" y1="0%" y2="100%"><stop offset="0%" style="stop-color:#3a8ef6"/><stop offset="100%" style="stop-color:#1a5fd4"/></linearGradient><linearGradient id="pg" x1="10%" x2="90%" y1="0%" y2="100%"><stop offset="0%" style="stop-color:#fff"/><stop offset="100%" style="stop-color:#e8eef8"/></linearGradient><linearGradient id="fd" x1="0%" x2="100%" y1="0%" y2="100%"><stop offset="0%" style="stop-color:#c5d5ee"/><stop offset="100%" style="stop-color:#a0b8de"/></linearGradient><linearGradient id="ln" x1="0%" x2="100%" y1="0%" y2="0%"><stop offset="0%" style="stop-color:#6aabee"/><stop offset="100%" style="stop-color:#9cc8f8"/></linearGradient></defs><rect width="32" height="32" x="0" y="0" fill="url(#bg)" rx="7"/><rect width="16" height="22" x="8" y="5" fill="url(#pg)" rx="1.5"/><polygon fill="url(#fd)" points="18 5 24 5 24 11"/><polygon fill="#fff" fill-opacity=".5" points="18 5 24 11 18 11"/><line x1="18" x2="18" y1="5" y2="11" stroke="#b0c4de" stroke-width=".4"/><line x1="17.8" x2="24" y1="11" y2="11" stroke="#b0c4de" stroke-width=".4"/><rect width="8" height="1.5" x="10" y="15" fill="url(#ln)" rx=".75"/><rect width="10" height="1.5" x="10" y="19" fill="url(#ln)" rx=".75"/><rect width="6" height="1.5" x="10" y="23" fill="url(#ln)" rx=".75"/><path fill="none" stroke="url(#ln)" stroke-linecap="round" stroke-linejoin="round" stroke-width="1.8" d="M8,10 L8,5 L13,5"/><path fill="none" stroke="url(#ln)" stroke-linecap="round" stroke-linejoin="round" stroke-width="1.8" d="M24,22 L24,27 L19,27"/></svg>