<svg xmlns="http://www.w3.org/2000/svg" width="128" height="128" viewBox="0 0 128 128"><defs><linearGradient id="bg" x1="0%" x2="100%" y1="0%" y2="100%"><stop offset="0%" style="stop-color:#3a8ef6"/><stop offset="100%" style="stop-color:#1a5fd4"/></linearGradient><linearGradient id="pg" x1="10%" x2="90%" y1="0%" y2="100%"><stop offset="0%" style="stop-color:#fff"/><stop offset="100%" style="stop-color:#e8eef8"/></linearGradient><linearGradient id="fd" x1="0%" x2="100%" y1="0%" y2="100%"><stop offset="0%" style="stop-color:#c5d5ee"/><stop offset="100%" style="stop-color:#a0b8de"/></linearGradient><linearGradient id="ln" x1="0%" x2="100%" y1="0%" y2="0%"><stop offset="0%" style="stop-color:#6aabee"/><stop offset="100%" style="stop-color:#9cc8f8"/></linearGradient></defs><rect width="128" height="128" x="0" y="0" fill="url(#bg)" rx="28"/><rect width="72" height="90" x="28" y="19" fill="url(#pg)" rx="5"/><polygon fill="url(#fd)" points="76 19 100 19 100 43"/><polygon fill="#fff" fill-opacity=".5" points="76 19 100 43 76 43"/><line x1="76" x2="76" y1="19" y2="43" stroke="#b0c4de" stroke-width=".8"/><line x1="76" x2="100" y1="43" y2="43" stroke="#b0c4de" stroke-width=".8"/><rect width="48" height="5" x="38" y="64" fill="url(#ln)" rx="2.5"/><rect width="56" height="5" x="38" y="79" fill="url(#ln)" rx="2.5"/><rect width="38" height="5" x="38" y="94" fill="url(#ln)" rx="2.5"/><path fill="none" stroke="url(#ln)" stroke-linecap="round" stroke-linejoin="round" stroke-width="5" d="M28,39 L28,19 L48,19"/><path fill="none" stroke="url(#ln)" stroke-linecap="round" stroke-linejoin="round" stroke-width="5" d="M100,89 L100,109 L80,109"/></svg>